<mxfile host="app.diagrams.net" modified="2024-07-17T23:08:48.912Z" agent="Mozilla/5.0 (Windows NT 10.0; Win64; x64) AppleWebKit/537.36 (KHTML, like Gecko) Chrome/126.0.0.0 Safari/537.36" etag="dsxhNXNXWqNi6rmuMKj9" version="24.6.4" type="github">
  <diagram name="Page-1" id="10a91c8b-09ff-31b1-d368-03940ed4cc9e">
    <mxGraphModel dx="1290" dy="557" grid="1" gridSize="10" guides="1" tooltips="1" connect="1" arrows="1" fold="1" page="1" pageScale="1" pageWidth="1100" pageHeight="850" background="none" math="0" shadow="0">
      <root>
        <mxCell id="0" />
        <mxCell id="1" parent="0" />
        <mxCell id="EpMARYfI38srTr6eBWt0-3" value="" style="edgeStyle=orthogonalEdgeStyle;rounded=0;orthogonalLoop=1;jettySize=auto;html=1;exitX=0.25;exitY=1;exitDx=0;exitDy=0;" edge="1" parent="1" source="EpMARYfI38srTr6eBWt0-1" target="EpMARYfI38srTr6eBWt0-2">
          <mxGeometry relative="1" as="geometry" />
        </mxCell>
        <mxCell id="EpMARYfI38srTr6eBWt0-5" style="edgeStyle=orthogonalEdgeStyle;rounded=0;orthogonalLoop=1;jettySize=auto;html=1;exitX=0.5;exitY=1;exitDx=0;exitDy=0;entryX=0.5;entryY=0;entryDx=0;entryDy=0;" edge="1" parent="1" source="EpMARYfI38srTr6eBWt0-1" target="EpMARYfI38srTr6eBWt0-4">
          <mxGeometry relative="1" as="geometry" />
        </mxCell>
        <mxCell id="EpMARYfI38srTr6eBWt0-7" style="edgeStyle=orthogonalEdgeStyle;rounded=0;orthogonalLoop=1;jettySize=auto;html=1;exitX=0.75;exitY=1;exitDx=0;exitDy=0;entryX=0.5;entryY=0;entryDx=0;entryDy=0;" edge="1" parent="1" source="EpMARYfI38srTr6eBWt0-1" target="EpMARYfI38srTr6eBWt0-6">
          <mxGeometry relative="1" as="geometry" />
        </mxCell>
        <mxCell id="EpMARYfI38srTr6eBWt0-1" value="Plant" style="rounded=0;whiteSpace=wrap;html=1;" vertex="1" parent="1">
          <mxGeometry x="480" y="40" width="120" height="60" as="geometry" />
        </mxCell>
        <mxCell id="EpMARYfI38srTr6eBWt0-9" value="" style="edgeStyle=orthogonalEdgeStyle;rounded=0;orthogonalLoop=1;jettySize=auto;html=1;" edge="1" parent="1" source="EpMARYfI38srTr6eBWt0-2" target="EpMARYfI38srTr6eBWt0-8">
          <mxGeometry relative="1" as="geometry" />
        </mxCell>
        <mxCell id="EpMARYfI38srTr6eBWt0-11" value="" style="edgeStyle=orthogonalEdgeStyle;rounded=0;orthogonalLoop=1;jettySize=auto;html=1;" edge="1" parent="1" source="EpMARYfI38srTr6eBWt0-2" target="EpMARYfI38srTr6eBWt0-10">
          <mxGeometry relative="1" as="geometry" />
        </mxCell>
        <mxCell id="EpMARYfI38srTr6eBWt0-2" value="Root" style="whiteSpace=wrap;html=1;rounded=0;" vertex="1" parent="1">
          <mxGeometry x="160" y="140" width="120" height="60" as="geometry" />
        </mxCell>
        <mxCell id="EpMARYfI38srTr6eBWt0-13" value="" style="edgeStyle=orthogonalEdgeStyle;rounded=0;orthogonalLoop=1;jettySize=auto;html=1;" edge="1" parent="1" source="EpMARYfI38srTr6eBWt0-4" target="EpMARYfI38srTr6eBWt0-12">
          <mxGeometry relative="1" as="geometry" />
        </mxCell>
        <mxCell id="EpMARYfI38srTr6eBWt0-14" value="" style="edgeStyle=orthogonalEdgeStyle;rounded=0;orthogonalLoop=1;jettySize=auto;html=1;" edge="1" parent="1" source="EpMARYfI38srTr6eBWt0-4" target="EpMARYfI38srTr6eBWt0-12">
          <mxGeometry relative="1" as="geometry" />
        </mxCell>
        <mxCell id="EpMARYfI38srTr6eBWt0-15" value="" style="edgeStyle=orthogonalEdgeStyle;rounded=0;orthogonalLoop=1;jettySize=auto;html=1;" edge="1" parent="1" source="EpMARYfI38srTr6eBWt0-4" target="EpMARYfI38srTr6eBWt0-12">
          <mxGeometry relative="1" as="geometry" />
        </mxCell>
        <mxCell id="EpMARYfI38srTr6eBWt0-17" style="edgeStyle=orthogonalEdgeStyle;rounded=0;orthogonalLoop=1;jettySize=auto;html=1;exitX=0.5;exitY=1;exitDx=0;exitDy=0;entryX=0.5;entryY=0;entryDx=0;entryDy=0;" edge="1" parent="1" source="EpMARYfI38srTr6eBWt0-4" target="EpMARYfI38srTr6eBWt0-16">
          <mxGeometry relative="1" as="geometry" />
        </mxCell>
        <mxCell id="EpMARYfI38srTr6eBWt0-4" value="Stem" style="whiteSpace=wrap;html=1;rounded=0;" vertex="1" parent="1">
          <mxGeometry x="480" y="140" width="120" height="60" as="geometry" />
        </mxCell>
        <mxCell id="EpMARYfI38srTr6eBWt0-19" value="" style="edgeStyle=orthogonalEdgeStyle;rounded=0;orthogonalLoop=1;jettySize=auto;html=1;" edge="1" parent="1" source="EpMARYfI38srTr6eBWt0-6" target="EpMARYfI38srTr6eBWt0-18">
          <mxGeometry relative="1" as="geometry" />
        </mxCell>
        <mxCell id="EpMARYfI38srTr6eBWt0-21" style="edgeStyle=orthogonalEdgeStyle;rounded=0;orthogonalLoop=1;jettySize=auto;html=1;exitX=0.5;exitY=1;exitDx=0;exitDy=0;entryX=0.5;entryY=0;entryDx=0;entryDy=0;" edge="1" parent="1" source="EpMARYfI38srTr6eBWt0-6" target="EpMARYfI38srTr6eBWt0-20">
          <mxGeometry relative="1" as="geometry" />
        </mxCell>
        <mxCell id="EpMARYfI38srTr6eBWt0-6" value="Leaf" style="whiteSpace=wrap;html=1;rounded=0;" vertex="1" parent="1">
          <mxGeometry x="800" y="140" width="120" height="60" as="geometry" />
        </mxCell>
        <mxCell id="EpMARYfI38srTr6eBWt0-8" value="Primary" style="whiteSpace=wrap;html=1;rounded=0;" vertex="1" parent="1">
          <mxGeometry x="50" y="240" width="120" height="60" as="geometry" />
        </mxCell>
        <mxCell id="EpMARYfI38srTr6eBWt0-10" value="Secondary" style="whiteSpace=wrap;html=1;rounded=0;" vertex="1" parent="1">
          <mxGeometry x="260" y="240" width="120" height="60" as="geometry" />
        </mxCell>
        <mxCell id="EpMARYfI38srTr6eBWt0-12" value="Node" style="whiteSpace=wrap;html=1;rounded=0;" vertex="1" parent="1">
          <mxGeometry x="400" y="240" width="120" height="60" as="geometry" />
        </mxCell>
        <mxCell id="EpMARYfI38srTr6eBWt0-16" value="Internode" style="whiteSpace=wrap;html=1;rounded=0;" vertex="1" parent="1">
          <mxGeometry x="560" y="240" width="120" height="60" as="geometry" />
        </mxCell>
        <mxCell id="EpMARYfI38srTr6eBWt0-18" value="Blade" style="whiteSpace=wrap;html=1;rounded=0;" vertex="1" parent="1">
          <mxGeometry x="710" y="240" width="120" height="60" as="geometry" />
        </mxCell>
        <mxCell id="EpMARYfI38srTr6eBWt0-20" value="Petiole" style="whiteSpace=wrap;html=1;rounded=0;" vertex="1" parent="1">
          <mxGeometry x="890" y="240" width="120" height="60" as="geometry" />
        </mxCell>
      </root>
    </mxGraphModel>
  </diagram>
</mxfile>
